{
    "format": {
        "bit_rate": "46132431",
        "duration": "13.033333",
        "filename": "C:/Footages/import_test/IMG_0165.MOV",
        "format_long_name": "QuickTime / MOV",
        "format_name": "mov,mp4,m4a,3gp,3g2,mj2",
        "nb_programs": 0,
        "nb_streams": 4,
        "probe_score": 100,
        "size": "75157417",
        "start_time": "0.000000",
        "tags": {
            "com.apple.quicktime.creationdate": "2016-12-21T09:14:45+0800",
            "com.apple.quicktime.make": "Apple",
            "com.apple.quicktime.model": "iPhone 7",
            "com.apple.quicktime.software": "10.0.1",
            "compatible_brands": "qt  ",
            "creation_time": "2016-12-21T01:14:45.000000Z",
            "major_brand": "qt  ",
            "minor_version": "0"
        }
    },
    "streams": [
        {
            "avg_frame_rate": "30/1",
            "bit_rate": "46034899",
            "bits_per_raw_sample": "8",
            "chroma_location": "left",
            "codec_long_name": "H.264 / AVC / MPEG-4 AVC / MPEG-4 part 10",
            "codec_name": "h264",
            "codec_tag": "0x31637661",
            "codec_tag_string": "avc1",
            "codec_time_base": "1/60",
            "codec_type": "video",
            "coded_height": 2160,
            "coded_width": 3840,
            "color_primaries": "bt709",
            "color_range": "tv",
            "color_space": "bt709",
            "color_transfer": "bt709",
            "display_aspect_ratio": "0:1",
            "disposition": {
                "attached_pic": 0,
                "clean_effects": 0,
                "comment": 0,
                "default": 1,
                "dub": 0,
                "forced": 0,
                "hearing_impaired": 0,
                "karaoke": 0,
                "lyrics": 0,
                "original": 0,
                "timed_thumbnails": 0,
                "visual_impaired": 0
            },
            "duration": "13.033333",
            "duration_ts": 7820,
            "has_b_frames": 0,
            "height": 2160,
            "index": 0,
            "is_avc": "true",
            "level": 51,
            "nal_length_size": "4",
            "nb_frames": "391",
            "pix_fmt": "yuv420p",
            "profile": "High",
            "r_frame_rate": "30/1",
            "refs": 1,
            "sample_aspect_ratio": "0:1",
            "start_pts": 0,
            "start_time": "0.000000",
            "tags": {
                "creation_time": "2016-12-21T01:14:45.000000Z",
                "encoder": "H.264",
                "handler_name": "Core Media Data Handler",
                "language": "und"
            },
            "time_base": "1/600",
            "width": 3840
        },
        {
            "avg_frame_rate": "0/0",
            "bit_rate": "83814",
            "bits_per_sample": 0,
            "channel_layout": "mono",
            "channels": 1,
            "codec_long_name": "AAC (Advanced Audio Coding)",
            "codec_name": "aac",
            "codec_tag": "0x6134706d",
            "codec_tag_string": "mp4a",
            "codec_time_base": "1/44100",
            "codec_type": "audio",
            "disposition": {
                "attached_pic": 0,
                "clean_effects": 0,
                "comment": 0,
                "default": 1,
                "dub": 0,
                "forced": 0,
                "hearing_impaired": 0,
                "karaoke": 0,
                "lyrics": 0,
                "original": 0,
                "timed_thumbnails": 0,
                "visual_impaired": 0
            },
            "duration": "13.031678",
            "duration_ts": 574697,
            "index": 1,
            "max_bit_rate": "96000",
            "nb_frames": "564",
            "profile": "LC",
            "r_frame_rate": "0/0",
            "sample_fmt": "fltp",
            "sample_rate": "44100",
            "start_pts": 0,
            "start_time": "0.000000",
            "tags": {
                "creation_time": "2016-12-21T01:14:45.000000Z",
                "handler_name": "Core Media Data Handler",
                "language": "und"
            },
            "time_base": "1/44100"
        },
        {
            "avg_frame_rate": "0/0",
            "bit_rate": "4",
            "codec_tag": "0x7862656d",
            "codec_tag_string": "mebx",
            "codec_type": "data",
            "disposition": {
                "attached_pic": 0,
                "clean_effects": 0,
                "comment": 0,
                "default": 1,
                "dub": 0,
                "forced": 0,
                "hearing_impaired": 0,
                "karaoke": 0,
                "lyrics": 0,
                "original": 0,
                "timed_thumbnails": 0,
                "visual_impaired": 0
            },
            "duration": "13.033333",
            "duration_ts": 7820,
            "index": 2,
            "nb_frames": "1",
            "r_frame_rate": "0/0",
            "start_pts": 0,
            "start_time": "0.000000",
            "tags": {
                "creation_time": "2016-12-21T01:14:45.000000Z",
                "handler_name": "Core Media Data Handler",
                "language": "und"
            },
            "time_base": "1/600"
        },
        {
            "avg_frame_rate": "0/0",
            "bit_rate": "6",
            "codec_tag": "0x7862656d",
            "codec_tag_string": "mebx",
            "codec_type": "data",
            "disposition": {
                "attached_pic": 0,
                "clean_effects": 0,
                "comment": 0,
                "default": 1,
                "dub": 0,
                "forced": 0,
                "hearing_impaired": 0,
                "karaoke": 0,
                "lyrics": 0,
                "original": 0,
                "timed_thumbnails": 0,
                "visual_impaired": 0
            },
            "duration": "13.033333",
            "duration_ts": 7820,
            "index": 3,
            "nb_frames": "1",
            "r_frame_rate": "0/0",
            "start_pts": 0,
            "start_time": "0.000000",
            "tags": {
                "creation_time": "2016-12-21T01:14:45.000000Z",
                "handler_name": "Core Media Data Handler",
                "language": "und"
            },
            "time_base": "1/600"
        }
    ]
}